HIERARCHY
ROOT joint_0
{
	OFFSET 0.000000 0.000000 0.000000
	CHANNELS 6 Xposition Yposition Zposition Zrotation Yrotation Xrotation 
	JOINT joint_1
	{
		OFFSET 1.363060 -1.794630 0.839290
		CHANNELS 3 Zrotation Yrotation Xrotation
		JOINT joint_2
		{
			OFFSET 2.448110 -6.726130 0.000000
			CHANNELS 3 Zrotation Yrotation Xrotation
			JOINT joint_3
			{
				OFFSET 2.562200 -7.039590 0.000000
				CHANNELS 3 Zrotation Yrotation Xrotation
				JOINT joint_4
				{
					OFFSET 0.157640 -0.433110 2.322550
					CHANNELS 3 Zrotation Yrotation Xrotation
					End Site
					{
						OFFSET 0.000000 0.000000 0.000000
					}
				}
			}
		}
	}
	JOINT joint_5
	{
		OFFSET -1.305520 -1.794630 0.839290
		CHANNELS 3 Zrotation Yrotation Xrotation
		JOINT joint_6
		{
			OFFSET -2.542530 -6.985550 0.000000
			CHANNELS 3 Zrotation Yrotation Xrotation
			JOINT joint_7
			{
				OFFSET -2.568260 -7.056230 0.000000
				CHANNELS 3 Zrotation Yrotation Xrotation
				JOINT joint_8
				{
					OFFSET -0.164730 -0.452590 2.363150
					CHANNELS 3 Zrotation Yrotation Xrotation
					End Site
					{
						OFFSET 0.000000 0.000000 0.000000
					}
				}
			}
		}
	}
	JOINT joint_9
	{
		OFFSET 0.028270 2.035590 -0.193380
		CHANNELS 3 Zrotation Yrotation Xrotation
		JOINT joint_10
		{
			OFFSET 0.056720 2.048850 -0.042750
			CHANNELS 3 Zrotation Yrotation Xrotation
			JOINT joint_11
			{
				OFFSET -0.054170 1.746240 0.172020
				CHANNELS 3 Zrotation Yrotation Xrotation
				JOINT joint_12
				{
					OFFSET 0.104070 1.761360 -0.123970
					CHANNELS 3 Zrotation Yrotation Xrotation
					End Site
					{
						OFFSET 0.000000 0.000000 0.000000
					}
				}
			}
			JOINT joint_13
			{
				OFFSET 3.362410 1.200890 -0.311210
				CHANNELS 3 Zrotation Yrotation Xrotation
				JOINT joint_14
				{
					OFFSET 4.983000 -0.000000 -0.000000
					CHANNELS 3 Zrotation Yrotation Xrotation
					JOINT joint_15
					{
						OFFSET 3.483560 -0.000000 -0.000000
						CHANNELS 3 Zrotation Yrotation Xrotation
						JOINT joint_16
						{
							OFFSET 0.715260 -0.000000 -0.000000
							CHANNELS 3 Zrotation Yrotation Xrotation
							End Site
							{
								OFFSET 0.000000 0.000000 0.000000
							}
						}
					}
				}
			}
			JOINT joint_17
			{
				OFFSET -3.136600 1.374050 -0.404650
				CHANNELS 3 Zrotation Yrotation Xrotation
				JOINT joint_18
				{
					OFFSET -5.241900 -0.000000 -0.000000
					CHANNELS 3 Zrotation Yrotation Xrotation
					JOINT joint_19
					{
						OFFSET -3.444170 -0.000000 -0.000000
						CHANNELS 3 Zrotation Yrotation Xrotation
						JOINT joint_20
						{
							OFFSET -0.622530 -0.000000 -0.000000
							CHANNELS 3 Zrotation Yrotation Xrotation
							End Site
							{
								OFFSET 0.000000 0.000000 0.000000
							}
						}
					}
				}
			}
		}
	}
}
MOTION
Frames: 6
Frame Time: 0.041667
2.346859 17.024327 6.267158 -0.066278 -8.146574 6.135642 -25.927929 -14.705718 0.463901 -0.635532 5.527177 16.923091 -2.938341 16.054092 -16.481965 0.113848 0.939406 2.541179 28.194031 13.702163 -5.930498 -0.201698 -8.044511 24.984332 0.023034 -9.353778 -14.462975 0.134499 0.356637 -0.570797 1.684966 -0.547996 -1.189480 -0.579535 -0.288040 -3.239288 7.358193 -9.566429 15.485944 1.155294 -4.044108 9.631777 -90.007208 9.503230 6.142577 22.454398 -28.206732 -3.810727 0.632733 1.376958 14.616541 -7.044630 0.091037 0.071138 89.622461 -1.336656 7.348099 -18.859926 26.550867 -3.229487 -0.586582 -0.025752 14.857208 7.196521 0.074918 0.127990 
2.347076 17.023678 6.269537 -0.058354 -8.170850 6.127833 -26.107397 -14.876727 0.582162 -0.573430 5.533592 17.415242 -2.487441 16.999416 -16.457739 0.127052 1.323886 3.581606 28.808957 13.942569 -5.009050 -0.545078 -8.427004 25.929066 0.164595 -9.037142 -14.262475 0.143422 0.472160 -0.867480 1.708054 -0.414229 -1.598462 -0.779074 -0.200727 -3.122221 7.242691 -9.558450 15.765808 1.092380 -4.277405 9.790348 -90.250504 9.258379 4.919871 21.750350 -27.902418 -3.713156 0.864588 1.137802 15.395478 -7.033660 0.087118 0.069452 90.586266 -1.064508 6.011406 -18.849747 26.274424 -3.063135 -0.454953 -0.599688 16.346423 7.201603 0.071035 0.127780 
2.346968 17.023678 6.272673 -0.064247 -8.158249 6.124719 -26.012202 -14.444152 0.837932 -0.743964 5.487219 17.450337 -2.532247 17.478883 -16.118825 0.143843 1.569123 4.247163 28.612108 13.636548 -4.892547 -0.315115 -8.385500 26.099014 -0.053425 -9.023769 -13.773733 0.154146 0.592462 -1.139104 1.560543 -0.421848 -1.445789 -0.546038 -0.281021 -3.270029 7.468265 -9.877860 15.367929 1.013528 -4.479167 9.941219 -89.951353 8.784329 3.941121 21.802533 -27.567400 -3.755600 0.990564 1.437146 15.572878 -7.028672 0.089545 0.073015 90.816209 -0.938717 5.531246 -18.551720 26.396438 -2.850176 -0.481120 -0.499747 17.298329 7.206640 0.072797 0.132346 
2.346103 17.023787 6.275376 -0.062896 -8.172488 6.130164 -26.150847 -14.082012 0.797289 -0.627045 5.832300 17.705455 -2.586034 17.914318 -15.516309 0.151366 1.690137 4.581075 28.306159 13.657605 -4.782673 -0.377951 -8.453550 26.418829 -0.293838 -8.712830 -13.181366 0.160781 0.706383 -1.426609 1.492476 -0.599847 -1.744592 -0.565957 -0.268131 -3.371838 7.163273 -10.114683 15.385101 0.897555 -4.640770 10.095432 -89.665872 8.866919 3.373104 22.014458 -27.399960 -3.767045 1.114685 1.427061 15.847611 -7.031545 0.089793 0.074279 90.918777 -0.798133 5.109669 -18.193268 25.980693 -2.925902 -0.406212 -0.465869 17.701388 7.205748 0.072178 0.135468 
2.345778 17.023787 6.278187 -0.061796 -8.178390 6.131692 -25.968374 -13.926346 0.847640 -0.855781 5.602504 17.513285 -2.382105 18.093931 -15.226199 0.152455 1.742957 4.730554 28.229663 13.581538 -4.787418 -0.321298 -8.585137 26.739001 -0.381562 -8.738603 -12.296510 0.165631 0.774008 -1.608885 1.377678 -0.479154 -1.509063 -0.547984 -0.512941 -3.159416 7.016065 -10.576545 15.211662 0.794710 -4.776676 10.223927 -89.512395 8.846688 2.841953 22.097256 -27.214601 -3.546408 0.867456 1.269012 16.227230 -7.035935 0.088442 0.073728 90.998521 -0.870728 4.777090 -18.097801 26.225810 -2.970831 -0.428663 -0.530412 18.011563 7.203917 0.069964 0.138049 
2.345346 17.023787 6.281106 -0.060694 -8.183065 6.135836 -25.935970 -13.686715 0.671500 -0.871121 5.619117 17.690079 -2.405610 18.367003 -14.805147 0.138614 1.698610 4.643478 27.905846 13.525860 -5.029259 -0.510903 -8.582172 27.110918 -0.668298 -8.575276 -12.142303 0.162694 0.811791 -1.771409 1.330738 -0.686896 -1.484836 -0.562471 -0.318399 -3.379171 6.816810 -10.693005 15.100290 0.648737 -4.900008 10.365812 -89.278414 8.884076 2.691837 21.856124 -27.245412 -3.619845 0.856591 1.138287 15.982265 -7.049662 0.079433 0.066610 90.950172 -1.002274 4.445702 -17.783929 26.048323 -2.701060 -0.431670 -0.455957 17.891210 7.197398 0.061130 0.132115 
